<svg width="25" height="93" viewBox="0 0 25 93" fill="none" xmlns="http://www.w3.org/2000/svg">
<path d="M0.366122 46.2819C0.412688 51.9585 5.82082 56.5491 12.4455 56.5355C19.0702 56.5218 24.4029 51.909 24.3563 46.2324C24.3097 40.5559 18.9016 35.9652 12.2769 35.9788C5.65219 35.9925 0.319557 40.6053 0.366122 46.2819Z" fill="black"/>
<path d="M0.548739 82.2084C0.595305 87.885 6.00343 92.4757 12.6281 92.462C19.2528 92.4483 24.5855 87.8355 24.5389 82.1589C24.4923 76.4824 19.0842 71.8917 12.4595 71.9053C5.83481 71.919 0.502174 76.5318 0.548739 82.2084Z" fill="black"/>
<path d="M0.183017 10.3556C0.229582 16.0322 5.63771 20.6229 12.2624 20.6092C18.8871 20.5956 24.2197 15.9827 24.1732 10.3062C24.1266 4.62959 18.7185 0.0389048 12.0938 0.0525638C5.46908 0.0662227 0.136451 4.67906 0.183017 10.3556Z" fill="black"/>
</svg>
